<?xml version="1.0" encoding="UTF-8"?>
<!DOCTYPE svg PUBLIC "-//W3C//DTD SVG 1.1//EN" "http://www.w3.org/Graphics/SVG/1.1/DTD/svg11.dtd">
<!-- Creator: CorelDRAW 2020 (64-Bit) -->
<svg xmlns="http://www.w3.org/2000/svg" xml:space="preserve" width="185.918mm" height="185.952mm" version="1.1" style="shape-rendering:geometricPrecision; text-rendering:geometricPrecision; image-rendering:optimizeQuality; fill-rule:evenodd; clip-rule:evenodd"
viewBox="0 0 18577.51 18580.9"
 xmlns:xlink="http://www.w3.org/1999/xlink"
 xmlns:xodm="http://www.corel.com/coreldraw/odm/2003">
 <defs>
  <style type="text/css">
   <![CDATA[
    .fil0 {fill:#2BD72B}
    .fil1 {fill:#FEFEFE}
   ]]>
  </style>
 </defs>
 <g id="Capa_x0020_1">
  <metadata id="CorelCorpID_0Corel-Layer"/>
  <g id="_2523425665120">
   <path class="fil0" d="M8251.17 10979.22c142.69,-82.21 485.26,-695.27 600.59,-874.26 1124.97,-1746.12 2332.95,-3719.59 3452.55,-5394 166.92,-249.64 366.93,-633.06 566.43,-844.22 310.81,6.95 930.25,415.54 1202.34,552.69 328.13,165.38 835.04,392.54 1084.04,597.79 -31.87,213.09 -220.07,453.8 -328.03,616.53 -1031.07,1554.01 -5578.81,8813.05 -5756.68,8984.67 -181.15,174.78 -1503.94,109.11 -1611.2,48.69 -72.52,-40.86 -1254.95,-1906.01 -1368.88,-2094.66l-1352.89 -2114.03c-258.45,-398.96 -438.31,-687.92 -679.37,-1058.1 -868.39,-1333.49 -897.29,-990.51 498.92,-1727.59 282.46,-149.12 892.71,-528.11 1188.13,-516.16l1858.83 2906.23c95.81,146.04 478,840.35 645.24,916.44zm-8231.59 -1129.29c158.83,2422.88 1277.97,4774.91 2992.44,6279.44 6503.22,5706.91 16003.38,712.73 15549.81,-7407.98 -274.96,-4923.07 -4513.62,-9000.08 -9835.2,-8706.45 -5082.39,280.43 -9040.15,4753.81 -8707.06,9834.99z"/>
   <path class="fil1" d="M8251.17 10979.22c-167.23,-76.09 -549.43,-770.4 -645.24,-916.44l-1858.83 -2906.23c-295.42,-11.95 -905.67,367.05 -1188.13,516.16 -1396.21,737.08 -1367.31,394.11 -498.92,1727.59 241.06,370.18 420.92,659.13 679.37,1058.1l1352.89 2114.03c113.93,188.66 1296.36,2053.8 1368.88,2094.66 107.27,60.41 1430.05,126.08 1611.2,-48.69 177.87,-171.62 4725.62,-7430.66 5756.68,-8984.67 107.96,-162.73 296.16,-403.44 328.03,-616.53 -249,-205.25 -755.91,-432.41 -1084.04,-597.79 -272.09,-137.14 -891.53,-545.73 -1202.34,-552.69 -199.5,211.16 -399.5,594.58 -566.43,844.22 -1119.6,1674.42 -2327.58,3647.88 -3452.55,5394 -115.33,178.99 -457.9,792.05 -600.59,874.26z"/>
  </g>
 </g>
</svg>
