<?xml version="1.0" encoding="UTF-8"?>
<!DOCTYPE svg PUBLIC "-//W3C//DTD SVG 1.1//EN" "http://www.w3.org/Graphics/SVG/1.1/DTD/svg11.dtd">
<!-- Creator: CorelDRAW 2020 (64-Bit) -->
<svg xmlns="http://www.w3.org/2000/svg" xml:space="preserve" width="204.785mm" height="204.785mm" version="1.1" style="shape-rendering:geometricPrecision; text-rendering:geometricPrecision; image-rendering:optimizeQuality; fill-rule:evenodd; clip-rule:evenodd"
viewBox="0 0 20464.25 20464.25"
 xmlns:xlink="http://www.w3.org/1999/xlink"
 xmlns:xodm="http://www.corel.com/coreldraw/odm/2003">
 <defs>
  <style type="text/css">
   <![CDATA[
    .str0 {stroke:#606062;stroke-width:19.99;stroke-miterlimit:22.9256}
    .fil1 {fill:#FEFEFE}
    .fil0 {fill:#606062}
   ]]>
  </style>
 </defs>
 <g id="Capa_x0020_1">
  <metadata id="CorelCorpID_0Corel-Layer"/>
  <rect class="fil0 str0" x="9.99" y="9.99" width="20444.26" height="20444.26" rx="3479.39" ry="3479.39"/>
  <g id="_2523746486976">
   <g>
    <path class="fil1" d="M9967.65 9005.34c0.65,-871.93 48.6,-1151.21 935.07,-887.33 131.8,1992.76 183.97,7156.7 -19.76,8496.62l-834.24 -39.15c-179.41,-1452.51 -82.38,-5697.51 -81.07,-7570.14zm-2632.11 3146.32c-97.29,-805.85 -182.77,-1583.28 -281.95,-2389.58 -67.91,-551.95 -422.62,-2102.06 550.98,-1661.05 505.14,228.82 444.2,1595.79 516.51,2190.55l552.5 4651.92c101.83,815.13 483.48,1781.58 -636.94,1687.72 -445.71,-620.06 -572.9,-3417.48 -701.09,-4479.57zm5572.15 4474.31c-1154.83,115.06 -731.14,-916.17 -624.73,-1813.27 90.22,-760.8 177.55,-1500.36 267.51,-2267.68 132.22,-1127.45 200.19,-3806.79 750.04,-4490.29l614.97 66.78c235.15,783.09 -647.62,7979.66 -1007.79,8504.46zm-7157.02 -9196.77c174.52,2422.64 396.95,4851.5 600.09,7274.82 345.74,4124.52 -60.24,3745.72 4124.28,3745.72 4183.71,0 3763.97,387.84 4114.66,-3746.1 205.21,-2418.96 420.18,-4846.55 599.98,-7274.44 389.15,-234.8 982.99,-320.2 787.12,-1019.23 -175.55,-626.52 -867.13,-526.31 -1498.29,-521.4l-8006.78 -0.1c-596.85,-4.92 -1256.34,-102.52 -1479.25,428.18 -310.23,738.57 370.48,869.94 758.18,1112.55z"/>
    <path class="fil1" d="M12172.39 2511.97c-368.55,-395.71 -468.12,-550.2 -1277.03,-371.96 -484.78,106.85 -930.98,223.21 -1385.67,325.94 -451.01,101.86 -913.45,184.62 -1386.59,308.21 -761.17,198.85 -537.99,404.03 -921.56,882.77 -515.04,109.8 -1869.5,353.43 -2271.25,528.54 -757.09,329.99 -640.61,1513.75 488.32,1341.92l9290.83 -2106.15c958.71,-313.87 697.72,-1390.54 -102.52,-1416.07 -416.02,-13.27 -1864.99,408.46 -2434.53,506.82z"/>
   </g>
  </g>
 </g>
</svg>
