<?xml version="1.0" encoding="UTF-8"?>
<!DOCTYPE svg PUBLIC "-//W3C//DTD SVG 1.1//EN" "http://www.w3.org/Graphics/SVG/1.1/DTD/svg11.dtd">
<!-- Creator: CorelDRAW 2020 (64-Bit) -->
<svg xmlns="http://www.w3.org/2000/svg" xml:space="preserve" width="192.617mm" height="192.617mm" version="1.1" style="shape-rendering:geometricPrecision; text-rendering:geometricPrecision; image-rendering:optimizeQuality; fill-rule:evenodd; clip-rule:evenodd"
viewBox="0 0 19247.45 19247.45"
 xmlns:xlink="http://www.w3.org/1999/xlink"
 xmlns:xodm="http://www.corel.com/coreldraw/odm/2003">
 <defs>
  <style type="text/css">
   <![CDATA[
    .str0 {stroke:#FEFEFE;stroke-width:105.75;stroke-miterlimit:22.9256}
    .fil0 {fill:#FEFEFE}
    .fil1 {fill:black}
    .fil3 {fill:#005079}
    .fil4 {fill:#EA0030}
    .fil2 {fill:#FEFEFE}
   ]]>
  </style>
 </defs>
 <g id="Capa_x0020_1">
  <metadata id="CorelCorpID_0Corel-Layer"/>
  <rect class="fil0 str0" x="52.88" y="52.88" width="19141.69" height="19141.69" rx="2997.78" ry="2997.78"/>
  <g id="_2523651814992">
   <g>
    <path class="fil1" d="M3752.67 11305.48l-766.67 2446.49c-42.74,138.15 -62.02,320.2 -185.16,351.45 -164.35,41.7 -270.01,-99.28 -230.23,-251.95 125.2,-480.49 361.86,-1121.48 511.06,-1630.7 80.86,-276.01 164.36,-554.11 251.32,-820.26 42.89,-131.26 67.81,-308.01 190.1,-346.89 195.45,-62.15 274.33,104.53 229.58,251.87zm-1050.21 -299.65c-174.58,531.94 -343.4,1088.34 -504.9,1635.96 -82.79,280.72 -170.3,536.39 -254.77,814.07 -42.54,139.81 -59.67,318.45 -188.26,352.33 -464.6,122.41 -64.18,-765.21 34.68,-1104.33l506.42 -1633.77c39.07,-120.16 57.46,-304.7 201.21,-335.32 155.37,-33.09 260.58,103.63 205.62,271.07zm947.42 3337.75c49.7,-111.99 104.88,-304.05 150.95,-441.55 53.85,-160.73 96.33,-291.52 150.61,-448.43l590.9 -1785.89c78.81,-236.35 282.05,-678.49 199.02,-947.2 -84.63,-273.88 -114.65,-87.84 15.85,-399.04 396.13,-944.77 129.31,-379.03 471.92,-726.97 157.52,-159.99 428.03,-946.65 538.45,-1216.2 68.11,-166.27 97.63,-273.41 241.01,-358.15 110.35,-65.2 324.27,-93.95 482.55,-97.69 321.74,-7.58 126.53,273.05 -49.17,807.51l-892.18 2661.32c-100.54,300.57 -197.7,598.68 -303.12,896.06 -152.49,430.19 -116.69,421.45 -385.14,792.64 -170.42,235.67 -325.98,456.63 -483.3,693.32 -85.17,128.12 -450.81,615.92 -477.8,699.93 170.08,204.17 431.54,390.99 327.9,840.43 -24.77,107.44 -89.8,202.12 -93.89,294.58 545.96,254.53 823.05,35.8 1133.37,-431.5 235.08,-353.99 479.88,-704.21 723.03,-1053.29 301.69,-433.13 470.85,-628.7 654.77,-1121.33 82.92,-222.13 387.49,-1118.35 500.93,-1244.77 129.66,10.38 223.78,140.71 295.14,223.08 80.22,92.61 151.82,167.55 235.43,258.17l495.35 509.97c62.44,53.8 184.68,190.73 238.2,276.68 105.7,169.75 219.13,991.34 257.66,1218.61 101.71,599.93 99.52,1214.07 600.96,1411.35 308.34,121.31 605.34,6.1 767.45,-161.61 188.07,-194.57 251.07,-390.29 201.22,-744.04 -81.28,-576.63 -182.57,-1160.01 -278.21,-1733.16 -114.62,-686.78 -108.34,-720.88 -601.73,-1154.61l-885.88 -845.73c-87.72,-78.52 -197.58,-133.5 -141.67,-310.21 67.36,-212.81 443.03,-1359.35 513.33,-1475.54 219.15,21.65 289.4,462.03 631.54,630.55 131.57,64.81 297.25,123.31 437.57,184.35 298.81,129.99 1127.76,515.37 1350.86,515.87 345.97,0.76 628.6,-272.54 643.68,-603.36 9.8,-215 -54.29,-366.22 -162.05,-482.62 -136.96,-147.92 -1054.66,-491.05 -1276.63,-585.11 -475.67,-201.55 -412.62,-158.85 -676.96,-564.86 -166.71,-256.08 -330.54,-493.73 -497.44,-743.63 -342.16,-512.25 -596.98,-1044.21 -1339.31,-1165.35 -412.28,-67.29 -1733.31,163.64 -2222.35,234.74 -435.78,63.35 -633.53,120.05 -800.11,443.36l-347.44 892.7c-108.6,295.28 -224.11,611.06 -343.33,898.63 -211.92,511.18 49.25,611.36 237.52,836.01 -29.63,149.28 -185.13,577.93 -257.42,682.27 -426.29,-43.94 -1874.3,-655.76 -2209.3,-493.72 -165.17,79.9 -212,237.03 -268.57,437.16 -234.5,829.7 -557.28,1811.48 -814.09,2653.9 -70.17,230.17 -311.65,871.86 -280.31,1106.27 58.04,434.06 923.14,503.21 1423.88,651.98 182.93,54.36 334.72,106.72 514.02,154.73 56.63,-71.23 76.28,-195.04 144.23,-282.76 259.5,-335.02 557.79,-320.84 918.08,-287.83z"/>
    <path class="fil1" d="M8529.52 3508.99c-392.43,63.72 -642.83,214.96 -838.72,455.44 -184.27,226.24 -343.23,579.59 -296.87,1002.55 122.14,1114.4 1569.12,1547.32 2289.42,669.53 800.95,-976.08 -116.92,-2295.88 -1153.83,-2127.53z"/>
    <path class="fil2" d="M2702.46 11005.83c54.96,-167.44 -50.25,-304.15 -205.62,-271.07 -143.75,30.62 -162.14,215.16 -201.21,335.32l-506.42 1633.77c-98.87,339.12 -499.28,1226.74 -34.68,1104.33 128.59,-33.87 145.72,-212.52 188.26,-352.33 84.47,-277.67 171.98,-533.35 254.77,-814.07 161.5,-547.61 330.32,-1104.02 504.9,-1635.96z"/>
    <path class="fil2" d="M3752.67 11305.48c44.75,-147.34 -34.13,-314.03 -229.58,-251.87 -122.29,38.88 -147.21,215.63 -190.1,346.89 -86.97,266.15 -170.46,544.26 -251.32,820.26 -149.2,509.22 -385.86,1150.21 -511.06,1630.7 -39.78,152.68 65.88,293.65 230.23,251.95 123.14,-31.25 142.42,-213.3 185.16,-351.45l766.67 -2446.49z"/>
    <path class="fil1" d="M3308.03 15008.16c224.54,-146.01 390.84,208.87 174.12,312.01 -140.81,67.01 -302.92,-56.97 -258.29,-215.41 20.65,-73.31 42.16,-69.27 84.17,-96.6zm681.46 235.62c59.97,-345.49 -196.83,-637.96 -478.24,-679.97 -374.69,-55.94 -652.98,193.22 -697.06,491.72 -118.08,799.56 1038.39,977.02 1175.3,188.25z"/>
    <path class="fil2" d="M3308.03 15008.16c-42.01,27.33 -63.51,23.29 -84.17,96.6 -44.63,158.44 117.48,282.42 258.29,215.41 216.72,-103.14 50.42,-458.02 -174.12,-312.01z"/>
   </g>
   <g>
    <path class="fil3" d="M14590.02 9517.33c-4.01,82.93 -36.95,166.63 -99.33,259.13 -623.98,925.36 -3420.41,5074.62 -3458.67,5223.19 -60.74,235.7 78.12,417.92 233.38,482.21 147.2,60.96 2506.3,31.67 2858.33,31.69 694.63,0.02 598.47,-79.51 902.89,-529.67l3474.77 -5207.55c62.41,-92.59 95.25,-176.17 99.21,-259l-4010.57 0z"/>
    <path class="fil4" d="M14589.99 9516.71c-4.01,-82.93 -36.95,-166.62 -99.34,-259.12 -623.97,-925.36 -3420.4,-5074.62 -3458.67,-5223.19 -60.73,-235.71 78.12,-417.92 233.38,-482.21 147.21,-60.96 2506.3,-31.68 2858.34,-31.69 694.62,-0.02 598.46,79.5 902.88,529.66l3474.78 5207.55c62.41,92.59 95.25,176.18 99.2,259l-4010.56 0z"/>
   </g>
  </g>
 </g>
</svg>
