<?xml version="1.0" encoding="UTF-8"?>
<!DOCTYPE svg PUBLIC "-//W3C//DTD SVG 1.1//EN" "http://www.w3.org/Graphics/SVG/1.1/DTD/svg11.dtd">
<!-- Creator: CorelDRAW 2020 (64-Bit) -->
<svg xmlns="http://www.w3.org/2000/svg" xml:space="preserve" width="204.785mm" height="204.785mm" version="1.1" style="shape-rendering:geometricPrecision; text-rendering:geometricPrecision; image-rendering:optimizeQuality; fill-rule:evenodd; clip-rule:evenodd"
viewBox="0 0 20464.21 20464.21"
 xmlns:xlink="http://www.w3.org/1999/xlink"
 xmlns:xodm="http://www.corel.com/coreldraw/odm/2003">
 <defs>
  <style type="text/css">
   <![CDATA[
    .str1 {stroke:#FEFEFE;stroke-width:19.99;stroke-miterlimit:22.9256}
    .str0 {stroke:#003D6A;stroke-width:19.99;stroke-miterlimit:22.9256}
    .fil1 {fill:#FEFEFE}
    .fil0 {fill:#003D6A}
   ]]>
  </style>
 </defs>
 <g id="Capa_x0020_1">
  <metadata id="CorelCorpID_0Corel-Layer"/>
  <rect class="fil0 str0" x="10.07" y="9.92" width="20444.22" height="20444.22" rx="3479.42" ry="3479.42"/>
  <g id="_2523743774288">
   <path class="fil1 str1" d="M7279.55 12007.8l1181.08 -0.3 0.36 1173.49 -1176.71 6.5 -4.73 -1179.69zm2329.87 2363.99l7.14 -3517.17 -3522.21 5.8 0.64 3509.22 3514.43 2.16z"/>
   <path class="fil1 str1" d="M12007.95 7280.14l1181.43 4.45 -2.97 1176.33 -1178.68 -0.18 0.22 -1180.6zm2365.58 2327.84l0.49 -3504.82 -3509.65 -5.26 -12.77 3518.95 3521.93 -8.87z"/>
   <path class="fil1 str1" d="M8457.47 7307.78l1.58 1152.75 -1161.9 3.57c-60.44,-75.84 -22.35,76.36 -44.42,-120.77l25.12 -1065.76 1065.09 -18.49c129.47,16.28 60.15,-31.05 114.53,48.7zm-2362.36 2297.82l3522.5 10.31 -18.9 -3517.79 -3502.47 -2.07 -1.13 3509.55z"/>
   <polygon class="fil1 str1" points="3746.05,16735.13 7277.07,16735.57 7278.15,15567.88 4900.46,15551.66 4898.82,13196.53 3743.84,13203.87 "/>
   <polygon class="fil1 str1" points="16725.31,3741.14 13211.61,3748.55 13199.8,4899.44 15549.64,4903.37 15571.51,7268.19 16727.77,7270.41 "/>
   <polygon class="fil1 str1" points="16730.14,16730.67 16723.91,13201.39 15572.82,13197.36 15568.21,15555.7 13208.8,15567.6 13201.11,16720.96 "/>
   <polygon class="fil1 str1" points="3744.59,3743.95 3743.84,7268.8 4897.71,7271.07 4900.53,4917.04 7268.47,4901.32 7267.79,3752.74 "/>
   <polygon class="fil1 str1" points="12008.37,13167.01 13191.79,13172.46 13227.67,14371.25 14366.78,14371.16 14372.38,12009.98 12012.62,12012.78 "/>
   <polygon class="fil0 str1" points="12007.73,8460.74 13186.41,8460.92 13189.38,7284.59 12007.95,7280.14 "/>
   <polygon class="fil0 str1" points="7284.28,13187.49 8460.99,13180.99 8460.63,12007.5 7279.55,12007.8 "/>
   <path class="fil1 str1" d="M12007.58 13212.22c-291.36,-4.66 -943.08,-62.95 -1181.1,35.05l-1.87 1111.56 1182.44 12.7 0.53 -1159.3z"/>
   <polygon class="fil0 str1" points="7297.15,8464.1 8459.05,8460.53 8457.47,7307.78 7296.71,7302.33 "/>
   <polygon class="fil1 str1" points="10868.9,11991.36 11985.39,11989.66 11989.23,10868.34 10865.05,10868.18 "/>
   <path class="fil1 str1" d="M3744.59 3743.95l3523.2 8.78 0.68 1148.58 -2367.94 15.72 -2.82 2354.03 -1153.87 -2.27 0.75 -3524.85zm0 0c-102.73,73.54 -31.84,3518.54 -28.75,3540.59 171.67,63.87 1032.78,66.54 1205.91,0.53l14.32 -2346.29c461.24,15.49 1976.2,60.15 2349.84,-16.77 59,-176.04 60.91,-1037.83 -6.5,-1199.97 -317.68,-44.24 -2462.89,-13.03 -3110.27,-12.11l-345.53 0.8c-88.28,14.93 -34.84,0.12 -79.02,33.22z"/>
   <path class="fil1 str1" d="M16725.31 3741.14l2.46 3529.26 -1156.26 -2.22 -21.86 -2364.82 -2349.84 -3.93 11.81 -1150.89 3513.7 -7.4zm0 0c-164.53,-85.22 -3504.26,-26.29 -3540.95,-21.99 -54.25,183.35 -56.58,1026.1 -0.53,1206.34l2345.18 18.41 5.39 2338.18c177.53,70.74 1026.45,63.06 1215.01,4.25 50.07,-284.38 11.07,-2482.59 13.18,-3117.47 0.55,-166.55 35.33,-340.35 -37.27,-427.71z"/>
   <path class="fil1 str1" d="M16730.14 16730.67l-3529.03 -9.71 7.69 -1153.36 2359.41 -11.9 4.61 -2358.34 1151.1 4.03 6.23 3529.28zm0 0l24.89 -53.07c7.55,-40.7 9.85,-62.58 11.43,-104.79l-18.35 -3390.71c-141.36,-51.69 -1057.47,-65.51 -1201.03,8.11l-16.39 2323.91 -2341.83 15.41c-65.1,181.93 -64.8,1040.45 -3.24,1216.13 267.85,41.06 2672.12,15.63 3348.12,13.45l196.39 -28.45z"/>
   <path class="fil1 str1" d="M14373.53 9607.98l-3521.93 8.87 12.77 -3518.95c-91.63,66.55 -52.27,124.51 -51.16,388.88 3.47,823.59 -38.4,2557.05 8.67,3157.04 9.26,1.08 3245.73,60.35 3467.55,8.66 101.6,-23.68 24,7.64 84.1,-44.51z"/>
   <path class="fil1 str1" d="M9609.42 14371.79c60.19,-69.06 55.82,104.46 45.94,-119.9l-0.53 -3428.38c-22.75,-2.13 -3274.32,-52.87 -3475.13,-6.29 -84.42,19.59 -36.06,3.24 -85.35,43.19l3522.21 -5.8 -7.14 3517.17z"/>
   <path class="fil1 str1" d="M6095.11 9605.6c69.05,90.42 123.15,50.39 391.98,49.36 694.46,-2.7 2790.54,34.66 3152.86,-10.77l19.55 -3352.9c-4.69,-205.71 -20.35,-155.56 -60.79,-193.17l18.9 3517.79 -3522.5 -10.31z"/>
   <path class="fil1 str1" d="M3746.05 16735.13l-2.21 -3531.26 1154.98 -7.33 1.64 2355.13 2377.69 16.22c-169.32,-100.37 -2128.72,-36.91 -2338.88,-45.63l-4.23 -2334.2c-190.5,-76.66 -1021.44,-65.74 -1224.61,-10.81l35.62 3557.89z"/>
   <path class="fil1 str1" d="M10865.05 10868.18l1124.18 0.16 -3.84 1121.32 -1116.49 1.7 -3.85 -1123.18zm1147.56 1144.59l2.93 -1192.3 -1189.48 -1.82 -8.58 1186.01 1195.14 8.1z"/>
   <path class="fil1 str1" d="M12007.58 13212.22l1158.11 -2.6 0.95 1043.97c32.09,182.71 -11.25,49.54 61.03,117.66l-35.88 -1198.8 -1183.43 -5.45 -1079.9 1.12c-115.76,29.4 -49.55,-17.56 -101.99,79.13 238.01,-97.99 889.74,-39.7 1181.1,-35.05z"/>
   <path class="fil1 str1" d="M7297.15 8464.1l-0.44 -1161.77 1160.76 5.46c-54.38,-79.74 14.94,-32.42 -114.53,-48.7l-1065.09 18.49 -25.12 1065.76c22.06,197.12 -16.02,44.93 44.42,120.77z"/>
  </g>
 </g>
</svg>
