<?xml version="1.0" encoding="UTF-8"?>
<!DOCTYPE svg PUBLIC "-//W3C//DTD SVG 1.1//EN" "http://www.w3.org/Graphics/SVG/1.1/DTD/svg11.dtd">
<!-- Creator: CorelDRAW 2020 (64-Bit) -->
<svg xmlns="http://www.w3.org/2000/svg" xml:space="preserve" width="186.118mm" height="186.118mm" version="1.1" style="shape-rendering:geometricPrecision; text-rendering:geometricPrecision; image-rendering:optimizeQuality; fill-rule:evenodd; clip-rule:evenodd"
viewBox="0 0 18597.55 18597.55"
 xmlns:xlink="http://www.w3.org/1999/xlink"
 xmlns:xodm="http://www.corel.com/coreldraw/odm/2003">
 <defs>
  <style type="text/css">
   <![CDATA[
    .str0 {stroke:#828283;stroke-width:19.98;stroke-miterlimit:22.9256}
    .fil1 {fill:#FEFEFE}
    .fil0 {fill:#A1A1A1}
   ]]>
  </style>
 </defs>
 <g id="Capa_x0020_1">
  <metadata id="CorelCorpID_0Corel-Layer"/>
  <g id="_2523746461776">
   <circle class="fil0 str0" cx="9298.78" cy="9298.77" r="9288.78"/>
   <g>
    <path class="fil1" d="M7364.76 4036.11c242.48,-27.04 569.12,8.91 791.43,51.07 1080.73,204.93 2032.48,911.14 2495.27,1886.66 173.97,366.71 344.81,866.51 350.96,1387.68 1.71,144.33 13.87,229.09 1.28,414.97 -22.87,337.58 -126.54,764.64 -248.99,1058.28 -187.71,450.15 -456.63,855.36 -788.68,1180.1 -37.89,37.05 -71.84,62.44 -112.8,102.61 -76.64,75.15 -152.16,131.1 -235.84,195.02 -1160.19,886.33 -2745.89,927.67 -3997.95,140.71 -511.52,-321.49 -955.27,-823.56 -1237.14,-1393.18 -141.91,-286.79 -267.16,-660.42 -313.77,-992.76 -61.89,-441.31 -54.89,-755.65 17.68,-1194.95 138.95,-841.24 675.08,-1656.83 1341.54,-2149.41 353.04,-260.93 740.7,-457.8 1177.65,-574.95 115.68,-31.01 233.68,-56.66 355.87,-75.21 142.47,-21.63 260.32,-20.66 403.49,-36.63zm3053.78 7323.76c54.31,37.35 105.48,101.48 156.48,150.29 400.08,382.87 84.66,180.61 270.19,668.41 102.44,269.31 344.33,481.62 556.92,688.6 212.25,206.64 407.5,418.13 622.8,622.99 401.17,381.73 850.91,871.81 1246.28,1245.07 214.39,202.39 408.65,415.49 623.12,622.42 214.2,206.66 369.78,429.52 739.96,505.38 406.12,83.23 756.78,-82.1 947.89,-278.19 186.34,-191.18 364.13,-528.19 280.83,-935.29 -75.42,-368.6 -287.1,-524.96 -499.96,-745.31 -410.7,-425.12 -837.12,-820.17 -1245.56,-1245.71 -408.08,-425.14 -832.07,-823.97 -1245.43,-1245.98 -265.81,-271.37 -521.95,-582.99 -931.16,-621.73 -253.3,-23.97 -163.18,68.8 -425.78,-205.41 -56.33,-58.81 -109.89,-100.07 -156.47,-164.18l230.34 -336.18c221.56,-322.53 414.71,-800.36 533.96,-1173.99 179.79,-563.37 262.95,-1370.55 159.96,-2045.97 -326.14,-2138.69 -1880.08,-3712.83 -3904.74,-4076.34 -691.62,-124.17 -1381.97,-95.58 -2070.13,76.76 -1652.34,413.81 -3021.48,1772.96 -3438.94,3420.79 -67.75,267.44 -154.76,679.33 -155.56,997.28 -1,394.97 3.14,701.65 67.96,1071.01 59.12,336.94 138.76,610.25 246.31,891.58 875.53,2290.22 3395.74,3613.62 5868.43,2882.99 146.09,-43.17 281.34,-94.88 422.72,-147.03 294.53,-108.65 663.3,-323.38 929.15,-500.67 58.65,-39.12 115.29,-86.36 170.4,-121.6z"/>
    <path class="fil1" d="M7235.37 4371.98c-301.77,55.04 -301.89,6.51 -717.61,148.39 -221.29,75.52 -410.55,155.59 -594.24,267.72 -742.9,453.49 -1249.77,1090.19 -1476.72,1967.63 -56.15,217.08 -95.77,507.2 -88.01,775.02 7.84,271.08 329.94,361.45 489.4,180.17 82.39,-93.66 78.31,-192.6 79.76,-350.49 1.13,-122.91 28.46,-267.65 50.63,-379.77 125.32,-633.99 522.18,-1205.03 1019.16,-1564.39 359.34,-259.83 712.24,-402.58 1247.36,-475.6 130.07,-17.76 276.26,4.85 388.26,-41.33 251.14,-103.55 305.07,-655.59 -397.99,-527.36z"/>
   </g>
  </g>
 </g>
</svg>
